<svg width="201" height="113" viewBox="0 0 201 113" fill="none" xmlns="http://www.w3.org/2000/svg">
<path d="M15.0003 54.4397C11.7268 54.4397 9.0151 53.8779 6.86532 52.7541C4.76439 51.6303 3.2009 50.189 2.17487 48.4301C1.14883 46.6712 0.635813 44.8634 0.635813 43.0068C0.635813 41.199 1.07554 39.4889 1.955 37.8766C2.83446 36.2154 4.08036 34.8473 5.6927 33.7724C7.3539 32.6975 9.30826 32.1601 11.5558 32.1601C11.5069 32.5998 11.4825 33.0151 11.4825 33.406C11.4825 33.748 11.4825 33.919 11.4825 33.919C11.4825 37.1926 11.8001 39.7821 12.4352 41.6876C13.0704 43.5442 13.8766 44.8878 14.8537 45.7184C15.8309 46.5002 16.8325 46.891 17.8586 46.891C19.422 46.891 20.8145 46.2803 22.036 45.0588C23.2575 43.7885 23.8682 42.3227 23.8682 40.6615C23.8682 38.8049 23.062 37.1681 21.4497 35.7512C19.8862 34.3343 17.883 32.7708 15.44 31.0608C14.072 30.0347 12.6062 28.8866 11.0427 27.6162C9.52812 26.297 8.23336 24.758 7.15847 22.9991C6.08357 21.1913 5.54613 19.0659 5.54613 16.623C5.54613 14.0823 6.13243 11.8348 7.30505 9.88046C8.52652 7.92611 10.1144 6.28934 12.0688 4.97015C14.072 3.6021 16.2462 2.57607 18.5914 1.89204C20.9855 1.15916 23.3552 0.792721 25.7004 0.792721C28.5831 0.792721 30.9527 1.25688 32.8094 2.1852C34.666 3.11352 36.0585 4.31056 36.9868 5.77632C37.9151 7.24209 38.3793 8.75671 38.3793 10.3202C38.3793 11.786 37.964 13.2029 37.1334 14.5709C36.3516 15.8901 35.179 16.965 33.6155 17.7956C32.052 18.6262 30.1221 19.0415 27.8258 19.0415C27.9723 18.3575 28.0701 17.7467 28.1189 17.2093C28.1678 16.623 28.1922 16.11 28.1922 15.6702C28.1922 13.2273 27.6548 11.4928 26.5799 10.4668C25.5538 9.39187 24.4056 8.85443 23.1353 8.85443C21.9138 8.85443 20.7412 9.31859 19.6175 10.2469C18.4937 11.1264 17.9318 12.5677 17.9318 14.5709C17.9318 16.281 18.3716 17.7467 19.251 18.9682C20.1793 20.1897 21.352 21.2646 22.7689 22.1929C24.2346 23.1212 25.7737 24.0251 27.386 24.9046C29.0472 25.784 30.6351 26.7612 32.1498 27.8361C33.7132 28.8621 35.008 30.0836 36.034 31.5005C37.0601 32.9174 37.5731 34.7008 37.5731 36.8505C37.5731 39.0981 36.9624 41.2967 35.7409 43.4465C34.5194 45.5474 32.8582 47.4285 30.7573 49.0897C28.6564 50.702 26.2378 51.9968 23.5018 52.974C20.8145 53.9511 17.9807 54.4397 15.0003 54.4397ZM55.4583 54.513C51.8916 54.513 48.9356 53.8046 46.5904 52.3877C44.2452 50.9219 42.4863 49.0164 41.3137 46.6712C40.1411 44.2771 39.5547 41.712 39.5547 38.9759C39.5547 36.3864 40.0433 33.7969 41.0205 31.2073C42.0465 28.569 43.5123 26.1749 45.4178 24.0251C47.3722 21.8753 49.7174 20.1408 52.4535 18.8216C55.2384 17.5024 58.3654 16.8428 61.8344 16.8428C66.134 16.8428 69.2609 17.82 71.2153 19.7744C73.2185 21.6799 74.2201 24.0007 74.2201 26.7368C74.2201 29.082 73.5849 31.2562 72.3146 33.2594C71.0931 35.2138 69.4564 36.8017 67.4043 38.0232C65.3522 39.1958 63.1047 39.7821 60.6618 39.7821C59.3914 39.7821 58.0967 39.5866 56.7775 39.1958C55.4583 38.8049 54.1635 38.1942 52.8932 37.3636C53.1375 40.3928 54.017 42.5915 55.5316 43.9595C57.0462 45.3276 58.854 46.0116 60.9549 46.0116C62.4207 46.0116 63.8864 45.7429 65.3522 45.2054C66.818 44.6191 68.1616 43.8862 69.3831 43.0068C70.6534 42.0784 71.6306 41.1013 72.3146 40.0752L72.8276 40.4417C72.8276 42.9823 72.2902 45.1565 71.2153 46.9643C70.1892 48.7232 68.8212 50.1646 67.1111 51.2883C65.4011 52.4121 63.52 53.2427 61.4679 53.7801C59.4647 54.2687 57.4615 54.513 55.4583 54.513ZM57.1439 34.7252C58.7074 34.7252 59.9777 34.2855 60.9549 33.406C61.9321 32.4777 62.665 31.4028 63.1536 30.1813C63.6422 28.9598 63.8864 27.8849 63.8864 26.9566C63.8864 25.8329 63.5689 24.9046 62.9337 24.1717C62.2985 23.3899 61.4191 22.9991 60.2953 22.9991C59.4159 22.9991 58.4387 23.3166 57.3638 23.9518C56.3378 24.587 55.4094 25.6863 54.5788 27.2498C53.7482 28.7644 53.2108 30.8898 52.9665 33.6259C54.53 34.3587 55.9225 34.7252 57.1439 34.7252ZM90.4386 54.513C87.2139 54.513 84.4778 53.7801 82.2303 52.3144C80.0316 50.8486 78.3704 48.9431 77.2467 46.5979C76.1229 44.2038 75.561 41.6387 75.561 38.9026C75.561 36.3131 76.0496 33.7236 77.0268 31.1341C78.0528 28.5445 79.543 26.1749 81.4974 24.0251C83.4517 21.8265 85.8214 20.092 88.6064 18.8216C91.4402 17.5024 94.6893 16.8428 98.3537 16.8428C101.969 16.8428 104.656 17.5757 106.415 19.0415C108.174 20.4584 109.054 22.0219 109.054 23.7319C109.054 25.5397 108.15 27.2009 106.342 28.7155C104.534 30.2302 101.896 30.9875 98.427 30.9875C98.6224 30.2546 98.769 29.5217 98.8667 28.7888C99.0133 28.0071 99.0866 27.2742 99.0866 26.5902C99.0866 25.5642 98.8667 24.7091 98.427 24.0251C97.9873 23.2922 97.2055 22.9258 96.0818 22.9258C95.0557 22.9258 93.9564 23.3899 92.7838 24.3183C91.66 25.2466 90.6829 26.6146 89.8523 28.4224C89.0705 30.2302 88.6796 32.4533 88.6796 35.0916C88.6796 37.6811 89.0949 39.7821 89.9255 41.3944C90.805 43.0068 91.9288 44.1794 93.2968 44.9123C94.6648 45.5963 96.1062 45.9383 97.6208 45.9383C99.624 45.9383 101.554 45.4253 103.411 44.3992C105.267 43.3243 106.611 41.8586 107.441 40.0019L108.174 40.2951C108.174 42.8358 107.588 45.01 106.415 46.8178C105.292 48.5767 103.826 50.0424 102.018 51.215C100.21 52.3388 98.2804 53.1694 96.2283 53.7068C94.1763 54.2443 92.2463 54.513 90.4386 54.513ZM118.813 54.2932C117.054 54.2932 115.491 53.5847 114.123 52.1678C112.755 50.702 112.071 48.65 112.071 46.0116C112.071 44.7412 112.217 43.2999 112.51 41.6876C112.804 40.0752 113.146 38.4385 113.536 36.7773C113.927 35.0672 114.269 33.4793 114.562 32.0135C114.856 30.4989 115.002 29.253 115.002 28.2758C115.002 27.2498 114.807 26.4436 114.416 25.8573C114.074 25.2221 113.61 24.9046 113.023 24.9046C112.095 24.9046 111.142 25.5397 110.165 26.8101L109.725 26.5169C109.677 25.7352 109.848 24.8068 110.238 23.7319C110.629 22.6571 111.24 21.631 112.071 20.6538C112.901 19.6278 113.952 18.7728 115.222 18.0888C116.541 17.4047 118.08 17.0627 119.839 17.0627C122.429 17.0627 124.31 17.82 125.482 19.3347C126.655 20.8004 127.241 22.5838 127.241 24.6847C127.241 25.0267 127.217 25.3931 127.168 25.784C127.168 26.126 127.144 26.468 127.095 26.8101C128.854 23.6342 130.686 21.2157 132.591 19.5545C134.546 17.8445 136.353 16.9894 138.015 16.9894C139.578 16.9894 140.726 17.6002 141.459 18.8216C142.192 20.0431 142.559 21.5089 142.559 23.2189C142.559 24.7824 142.241 26.3703 141.606 27.9827C141.019 29.595 140.116 30.9386 138.894 32.0135C137.722 33.0396 136.28 33.5281 134.57 33.4793L134.277 33.3327C134.228 32.0624 133.813 31.0608 133.031 30.3279C132.249 29.595 131.37 29.2286 130.393 29.2286C129.073 29.2286 127.828 29.8882 126.655 31.2073C125.531 32.5265 124.969 34.432 124.969 36.9238C124.969 38.4385 125.14 40.0752 125.482 41.8341C125.824 43.5931 125.995 45.0833 125.995 46.3047C125.995 47.7705 125.653 49.1141 124.969 50.3356C124.285 51.5571 123.406 52.5342 122.331 53.2671C121.256 53.9511 120.083 54.2932 118.813 54.2932ZM156.648 54.513C153.081 54.513 150.125 53.8046 147.78 52.3877C145.435 50.9219 143.676 49.0164 142.503 46.6712C141.33 44.2771 140.744 41.712 140.744 38.9759C140.744 36.3864 141.233 33.7969 142.21 31.2073C143.236 28.569 144.702 26.1749 146.607 24.0251C148.562 21.8753 150.907 20.1408 153.643 18.8216C156.428 17.5024 159.555 16.8428 163.024 16.8428C167.323 16.8428 170.45 17.82 172.405 19.7744C174.408 21.6799 175.409 24.0007 175.409 26.7368C175.409 29.082 174.774 31.2562 173.504 33.2594C172.282 35.2138 170.646 36.8017 168.594 38.0232C166.542 39.1958 164.294 39.7821 161.851 39.7821C160.581 39.7821 159.286 39.5866 157.967 39.1958C156.648 38.8049 155.353 38.1942 154.083 37.3636C154.327 40.3928 155.206 42.5915 156.721 43.9595C158.236 45.3276 160.043 46.0116 162.144 46.0116C163.61 46.0116 165.076 45.7429 166.542 45.2054C168.007 44.6191 169.351 43.8862 170.572 43.0068C171.843 42.0784 172.82 41.1013 173.504 40.0752L174.017 40.4417C174.017 42.9823 173.48 45.1565 172.405 46.9643C171.379 48.7232 170.011 50.1646 168.3 51.2883C166.59 52.4121 164.709 53.2427 162.657 53.7801C160.654 54.2687 158.651 54.513 156.648 54.513ZM158.333 34.7252C159.897 34.7252 161.167 34.2855 162.144 33.406C163.121 32.4777 163.854 31.4028 164.343 30.1813C164.831 28.9598 165.076 27.8849 165.076 26.9566C165.076 25.8329 164.758 24.9046 164.123 24.1717C163.488 23.3899 162.608 22.9991 161.485 22.9991C160.605 22.9991 159.628 23.3166 158.553 23.9518C157.527 24.587 156.599 25.6863 155.768 27.2498C154.938 28.7644 154.4 30.8898 154.156 33.6259C155.719 34.3587 157.112 34.7252 158.333 34.7252ZM187.675 54.2932C186.112 54.2932 184.622 53.9511 183.205 53.2671C181.837 52.5342 180.713 51.4105 179.834 49.8959C179.003 48.3812 178.588 46.4513 178.588 44.1061C178.588 42.8358 178.71 41.1746 178.954 39.1225C179.198 37.0704 179.516 34.8229 179.907 32.38C180.347 29.937 180.786 27.4941 181.226 25.0511C180.249 25.1 179.296 25.1977 178.368 25.3443C177.488 25.4909 176.609 25.6619 175.729 25.8573L175.583 25.3443C176.56 24.1717 177.586 23.1701 178.661 22.3395C179.736 21.5089 180.86 20.8248 182.032 20.2874C182.667 17.0627 183.205 14.2778 183.645 11.9325C184.084 9.53845 184.304 8.12155 184.304 7.68182C184.304 6.85122 184.939 6.16719 186.21 5.62975C187.529 5.0923 188.995 4.82358 190.607 4.82358C192.024 4.82358 193.343 5.0923 194.565 5.62975C195.835 6.16719 196.69 7.07108 197.13 8.34141C196.837 8.63456 196.421 9.73389 195.884 11.6394C195.346 13.496 194.784 15.768 194.198 18.4552C195.126 18.5041 196.079 18.5529 197.056 18.6018C198.034 18.6506 199.035 18.7239 200.061 18.8216C200.159 19.1148 200.232 19.4324 200.281 19.7744C200.33 20.1164 200.354 20.4828 200.354 20.8737C200.354 21.6066 200.232 22.4128 199.988 23.2922C199.792 24.1228 199.548 24.8801 199.255 25.5642C198.082 25.4664 196.983 25.3687 195.957 25.271C194.931 25.1244 193.929 25.0267 192.952 24.9778C192.561 27.0788 192.195 29.1797 191.853 31.2806C191.56 33.3816 191.315 35.2871 191.12 36.9971C190.973 38.7072 190.9 40.0508 190.9 41.028C190.9 43.08 191.267 44.4481 191.999 45.1321C192.781 45.8161 193.71 46.1582 194.784 46.1582C195.762 46.1582 196.641 45.9627 197.423 45.5718C198.205 45.181 198.766 44.7168 199.108 44.1794L199.841 44.3992C199.548 46.4024 198.766 48.1614 197.496 49.676C196.226 51.1418 194.711 52.2899 192.952 53.1205C191.193 53.9023 189.434 54.2932 187.675 54.2932ZM29.7281 112.44C26.4546 112.44 23.7429 111.878 21.5931 110.754C19.4922 109.63 17.9287 108.189 16.9027 106.43C15.8766 104.671 15.3636 102.863 15.3636 101.007C15.3636 99.199 15.8033 97.4889 16.6828 95.8766C17.5623 94.2154 18.8082 92.8473 20.4205 91.7724C22.0817 90.6975 24.036 90.1601 26.2836 90.1601C26.2347 90.5998 26.2103 91.0151 26.2103 91.406C26.2103 91.748 26.2103 91.919 26.2103 91.919C26.2103 95.1926 26.5278 97.7821 27.163 99.6876C27.7982 101.544 28.6044 102.888 29.5815 103.718C30.5587 104.5 31.5603 104.891 32.5863 104.891C34.1498 104.891 35.5423 104.28 36.7638 103.059C37.9852 101.789 38.596 100.323 38.596 98.6615C38.596 96.8049 37.7898 95.1681 36.1775 93.7512C34.614 92.3343 32.6108 90.7708 30.1678 89.0608C28.7998 88.0347 27.334 86.8866 25.7705 85.6162C24.2559 84.297 22.9612 82.758 21.8863 80.9991C20.8114 79.1913 20.2739 77.0659 20.2739 74.623C20.2739 72.0823 20.8602 69.8348 22.0328 67.8805C23.2543 65.9261 24.8422 64.2893 26.7966 62.9702C28.7998 61.6021 30.974 60.5761 33.3192 59.892C35.7133 59.1592 38.083 58.7927 40.4282 58.7927C43.3109 58.7927 45.6805 59.2569 47.5372 60.1852C49.3938 61.1135 50.7863 62.3106 51.7146 63.7763C52.6429 65.2421 53.1071 66.7567 53.1071 68.3202C53.1071 69.786 52.6918 71.2029 51.8612 72.5709C51.0794 73.8901 49.9068 74.965 48.3433 75.7956C46.7798 76.6262 44.8499 77.0415 42.5536 77.0415C42.7001 76.3575 42.7978 75.7467 42.8467 75.2093C42.8956 74.623 42.92 74.11 42.92 73.6702C42.92 71.2273 42.3825 69.4928 41.3077 68.4668C40.2816 67.3919 39.1334 66.8544 37.8631 66.8544C36.6416 66.8544 35.469 67.3186 34.3453 68.2469C33.2215 69.1264 32.6596 70.5677 32.6596 72.5709C32.6596 74.281 33.0994 75.7467 33.9788 76.9682C34.9071 78.1897 36.0798 79.2646 37.4967 80.1929C38.9624 81.1212 40.5015 82.0251 42.1138 82.9046C43.775 83.784 45.3629 84.7612 46.8776 85.8361C48.441 86.8621 49.7358 88.0836 50.7618 89.5005C51.7879 90.9174 52.3009 92.7008 52.3009 94.8505C52.3009 97.0981 51.6902 99.2967 50.4687 101.446C49.2472 103.547 47.586 105.428 45.4851 107.09C43.3842 108.702 40.9656 109.997 38.2295 110.974C35.5423 111.951 32.7085 112.44 29.7281 112.44ZM81.106 112.366C79.396 112.366 77.9058 111.805 76.6355 110.681C75.3651 109.557 74.73 107.725 74.73 105.184C74.73 104.94 74.73 104.696 74.73 104.451C74.73 104.207 74.7544 103.963 74.8033 103.718C73.3375 106.65 71.6763 108.824 69.8196 110.241C68.0119 111.609 66.1797 112.293 64.323 112.293C62.613 112.293 61.0006 111.707 59.486 110.534C57.9714 109.313 56.7499 107.529 55.8216 105.184C54.8933 102.839 54.4291 100.005 54.4291 96.6828C54.4291 93.2626 54.8933 90.209 55.8216 87.5217C56.7988 84.8345 58.0691 82.5625 59.6326 80.7059C61.1961 78.8493 62.9061 77.4568 64.7628 76.5285C66.6194 75.5513 68.4272 75.0627 70.1861 75.0627C72.1404 75.0627 73.8994 75.6735 75.4628 76.8949C77.0263 78.0675 78.1012 79.9486 78.6875 82.5381C78.8341 81.7075 78.9318 80.9502 78.9807 80.2662C79.0784 79.5822 79.1273 79.118 79.1273 78.8737C79.1761 77.5545 79.8357 76.5773 81.106 75.9422C82.4252 75.307 83.8666 74.9894 85.43 74.9894C86.7981 74.9894 88.0929 75.2582 89.3143 75.7956C90.5358 76.333 91.3664 77.2369 91.8061 78.5073L91.9527 78.947C91.3664 80.2662 90.7801 81.8541 90.1938 83.7107C89.6075 85.5674 89.07 87.5217 88.5814 89.5738C88.0929 91.577 87.702 93.5558 87.4088 95.5101C87.1157 97.4156 86.9691 99.1013 86.9691 100.567C86.9691 102.179 87.1401 103.303 87.4821 103.938C87.8241 104.525 88.2394 104.818 88.728 104.818C89.5586 104.818 90.3159 104.231 91 103.059L91.5863 103.352C91.5863 105.013 91.0488 106.528 89.9739 107.896C88.899 109.264 87.5554 110.363 85.9431 111.194C84.3307 111.976 82.7184 112.366 81.106 112.366ZM69.1601 103.059C70.4304 103.059 71.8229 101.935 73.3375 99.6876C74.901 97.3912 76.2446 94.1177 77.3683 89.8669C77.4661 89.4272 77.5638 89.0119 77.6615 88.621C77.7592 88.1813 77.8325 87.766 77.8814 87.3751C77.0996 85.5674 76.269 84.297 75.3896 83.5642C74.559 82.7824 73.7284 82.3915 72.8978 82.3915C71.6763 82.3915 70.5281 83.0511 69.4532 84.3703C68.4272 85.6407 67.5721 87.253 66.8881 89.2073C66.253 91.1617 65.9354 93.1161 65.9354 95.0704C65.9354 97.7576 66.2285 99.7609 66.8148 101.08C67.45 102.399 68.2317 103.059 69.1601 103.059ZM102.173 112.22C100.365 112.22 98.7284 111.511 97.2627 110.095C95.7969 108.629 95.064 106.601 95.064 104.012C95.064 102.741 95.235 101.3 95.577 99.6876C95.919 98.0752 96.2855 96.4385 96.6764 94.7773C97.1161 93.1161 97.507 91.5526 97.849 90.0868C98.191 88.621 98.362 87.424 98.362 86.4957C98.362 85.5185 98.1666 84.7612 97.7757 84.2237C97.3848 83.6374 96.8718 83.3443 96.2366 83.3443C95.406 83.3443 94.5021 83.8329 93.525 84.8101L93.0852 84.5169C93.0364 83.7352 93.2074 82.8068 93.5983 81.7319C93.9891 80.6571 94.5754 79.631 95.3572 78.6538C96.1878 77.6278 97.2382 76.7728 98.5086 76.0888C99.7789 75.4047 101.294 75.0627 103.052 75.0627C105.642 75.0627 107.547 75.82 108.769 77.3347C110.039 78.8004 110.674 80.6082 110.674 82.758C110.674 83.5397 110.601 84.297 110.455 85.0299C111.481 83.5153 112.751 82.0007 114.266 80.486C115.78 78.9226 117.441 77.6278 119.249 76.6018C121.106 75.5757 123.011 75.0627 124.966 75.0627C127.262 75.0627 128.825 75.7956 129.656 77.2614C130.487 78.7271 130.902 80.5593 130.902 82.758C130.902 84.8101 130.682 87.0087 130.242 89.3539C129.803 91.6992 129.363 93.9711 128.923 96.1697C128.483 98.3195 128.264 100.127 128.264 101.593C128.264 103.547 128.825 104.525 129.949 104.525C130.536 104.525 131.049 104.354 131.488 104.012C131.928 103.621 132.221 103.254 132.368 102.912L132.881 103.132C132.881 104.94 132.368 106.528 131.342 107.896C130.365 109.264 129.119 110.339 127.604 111.121C126.089 111.853 124.55 112.22 122.987 112.22C121.081 112.22 119.396 111.56 117.93 110.241C116.464 108.922 115.731 106.772 115.731 103.792C115.731 102.033 115.951 100.127 116.391 98.0752C116.879 96.0232 117.344 94.0444 117.783 92.1389C118.223 90.2334 118.443 88.6699 118.443 87.4484C118.443 86.7155 118.296 86.1537 118.003 85.7628C117.759 85.3231 117.295 85.1032 116.611 85.1032C115.487 85.1032 114.241 85.6162 112.873 86.6423C111.554 87.6683 110.406 89.0363 109.429 90.7464C108.5 92.4565 108.036 94.3375 108.036 96.3896C108.036 97.7088 108.183 98.9791 108.476 100.201C108.818 101.422 108.989 102.741 108.989 104.158C108.989 106.797 108.305 108.8 106.937 110.168C105.569 111.536 103.981 112.22 102.173 112.22ZM145.107 112.293C143.543 112.293 142.053 111.951 140.636 111.267C139.268 110.534 138.144 109.41 137.265 107.896C136.434 106.381 136.019 104.451 136.019 102.106C136.019 100.836 136.141 99.1746 136.385 97.1225C136.63 95.0704 136.947 92.8229 137.338 90.38C137.778 87.937 138.218 85.4941 138.657 83.0511C137.68 83.1 136.727 83.1977 135.799 83.3443C134.92 83.4909 134.04 83.6619 133.161 83.8573L133.014 83.3443C133.991 82.1717 135.017 81.1701 136.092 80.3395C137.167 79.5089 138.291 78.8248 139.464 78.2874C140.099 75.0627 140.636 72.2778 141.076 69.9325C141.516 67.5385 141.735 66.1215 141.735 65.6818C141.735 64.8512 142.371 64.1672 143.641 63.6297C144.96 63.0923 146.426 62.8236 148.038 62.8236C149.455 62.8236 150.774 63.0923 151.996 63.6297C153.266 64.1672 154.121 65.0711 154.561 66.3414C154.268 66.6346 153.852 67.7339 153.315 69.6394C152.778 71.496 152.216 73.768 151.629 76.4552C152.558 76.5041 153.51 76.5529 154.488 76.6018C155.465 76.6506 156.466 76.7239 157.492 76.8216C157.59 77.1148 157.663 77.4324 157.712 77.7744C157.761 78.1164 157.786 78.4828 157.786 78.8737C157.786 79.6066 157.663 80.4128 157.419 81.2922C157.224 82.1228 156.979 82.8801 156.686 83.5642C155.514 83.4664 154.414 83.3687 153.388 83.271C152.362 83.1244 151.361 83.0267 150.383 82.9778C149.993 85.0788 149.626 87.1797 149.284 89.2806C148.991 91.3816 148.747 93.2871 148.551 94.9971C148.405 96.7072 148.331 98.0508 148.331 99.028C148.331 101.08 148.698 102.448 149.431 103.132C150.212 103.816 151.141 104.158 152.216 104.158C153.193 104.158 154.072 103.963 154.854 103.572C155.636 103.181 156.198 102.717 156.54 102.179L157.273 102.399C156.979 104.402 156.198 106.161 154.927 107.676C153.657 109.142 152.142 110.29 150.383 111.121C148.625 111.902 146.866 112.293 145.107 112.293ZM184.657 112.366C182.947 112.366 181.457 111.805 180.187 110.681C178.916 109.557 178.281 107.725 178.281 105.184C178.281 104.94 178.281 104.696 178.281 104.451C178.281 104.207 178.306 103.963 178.354 103.718C176.889 106.65 175.227 108.824 173.371 110.241C171.563 111.609 169.731 112.293 167.874 112.293C166.164 112.293 164.552 111.707 163.037 110.534C161.523 109.313 160.301 107.529 159.373 105.184C158.444 102.839 157.98 100.005 157.98 96.6828C157.98 93.2626 158.444 90.209 159.373 87.5217C160.35 84.8345 161.62 82.5625 163.184 80.7059C164.747 78.8493 166.457 77.4568 168.314 76.5285C170.171 75.5513 171.978 75.0627 173.737 75.0627C175.692 75.0627 177.451 75.6735 179.014 76.8949C180.577 78.0675 181.652 79.9486 182.239 82.5381C182.385 81.7075 182.483 80.9502 182.532 80.2662C182.63 79.5822 182.678 79.118 182.678 78.8737C182.727 77.5545 183.387 76.5773 184.657 75.9422C185.976 75.307 187.418 74.9894 188.981 74.9894C190.349 74.9894 191.644 75.2582 192.865 75.7956C194.087 76.333 194.918 77.2369 195.357 78.5073L195.504 78.947C194.918 80.2662 194.331 81.8541 193.745 83.7107C193.159 85.5674 192.621 87.5217 192.133 89.5738C191.644 91.577 191.253 93.5558 190.96 95.5101C190.667 97.4156 190.52 99.1013 190.52 100.567C190.52 102.179 190.691 103.303 191.033 103.938C191.375 104.525 191.791 104.818 192.279 104.818C193.11 104.818 193.867 104.231 194.551 103.059L195.137 103.352C195.137 105.013 194.6 106.528 193.525 107.896C192.45 109.264 191.107 110.363 189.494 111.194C187.882 111.976 186.27 112.366 184.657 112.366ZM172.711 103.059C173.982 103.059 175.374 101.935 176.889 99.6876C178.452 97.3912 179.796 94.1177 180.919 89.8669C181.017 89.4272 181.115 89.0119 181.213 88.621C181.31 88.1813 181.384 87.766 181.433 87.3751C180.651 85.5674 179.82 84.297 178.941 83.5642C178.11 82.7824 177.28 82.3915 176.449 82.3915C175.227 82.3915 174.079 83.0511 173.004 84.3703C171.978 85.6407 171.123 87.253 170.439 89.2073C169.804 91.1617 169.487 93.1161 169.487 95.0704C169.487 97.7576 169.78 99.7609 170.366 101.08C171.001 102.399 171.783 103.059 172.711 103.059Z" fill="#A0CCB7"/>
</svg>
