<?xml version="1.0" encoding="utf-8"?>
<svg xml:space="preserve" viewBox="0 0 100 100" y="0" x="0"
    xmlns="http://www.w3.org/2000/svg" id="圖層_1" version="1.1" width="200px" height="200px"
    xmlns:xlink="http://www.w3.org/1999/xlink" style="width:100%;height:100%;animation-play-state:paused">
    <g class="ldl-scale"
        style="transform-origin:50% 50% 0px;transform:rotate(0deg) scale(0.8);animation-play-state:paused">
        <path stroke-miterlimit="10" stroke-linejoin="round" stroke-linecap="round" stroke-width="3.5" stroke="#333"
            fill="#f47e60"
            d="M88.934 23.193c5.692 8.746-32.032 27.106-35.71 21.454l-2.983-4.583c-4.92-7.561 26.465-35.661 34.078-23.962l4.615 7.091z"
            style="stroke:rgb(250, 217, 109);fill:rgb(234, 177, 69);animation-play-state:paused"></path>
        <path stroke-miterlimit="10" stroke-linejoin="round" stroke-linecap="round" stroke-width="3.5" stroke="#333"
            fill="#f47e60"
            d="M11.066 23.193c-5.692 8.746 32.032 27.106 35.71 21.454l2.983-4.583c4.92-7.561-26.465-35.661-34.078-23.962l-4.615 7.091z"
            style="stroke:rgb(250, 217, 109);fill:rgb(234, 177, 69);animation-play-state:paused"></path>
        <path d="M21.017 86.711l-.891-12.929L7.5 70.858 43.903 44.03l9.358 10.976z" stroke-miterlimit="10"
            stroke-linejoin="round" stroke-linecap="round" stroke-width="3.5" stroke="#333" fill="#f47e60"
            style="stroke:rgb(250, 217, 109);fill:rgb(234, 177, 69);animation-play-state:paused"></path>
        <path d="M78.983 86.711l.891-12.929L92.5 70.858 56.097 44.03l-9.358 10.976z" stroke-miterlimit="10"
            stroke-linejoin="round" stroke-linecap="round" stroke-width="3.5" stroke="#333" fill="#f47e60"
            style="stroke:rgb(250, 217, 109);fill:rgb(234, 177, 69);animation-play-state:paused"></path>
        <path stroke-miterlimit="10" stroke-linejoin="round" stroke-linecap="round" stroke-width="3.5" stroke="#333"
            fill="#f47e60"
            d="M54.628 60.243H46.81a4.103 4.103 0 0 1-4.104-4.104v-17.6a4.103 4.103 0 0 1 4.104-4.104h7.818a4.103 4.103 0 0 1 4.104 4.104v17.6a4.103 4.103 0 0 1-4.104 4.104z"
            style="stroke:rgb(250, 217, 109);fill:rgb(234, 177, 69);animation-play-state:paused"></path>
        <metadata xmlns:d="https://loading.io/stock/" style="animation-play-state:paused">
            <d:name style="animation-play-state:paused">ribbon</d:name>


            <d:tags style="animation-play-state:paused">ribbon,tie,gift,present,holiday,christmas</d:tags>


            <d:license style="animation-play-state:paused">by</d:license>


            <d:slug style="animation-play-state:paused">oewiug</d:slug>
        </metadata>
    </g><!-- generated by https://loading.io/ -->
</svg>