<?xml version="1.0" encoding="utf-8"?>
<svg viewBox="0 0 100 100" xmlns="http://www.w3.org/2000/svg" width="200px"
    height="200px" xmlns:xlink="http://www.w3.org/1999/xlink"
    style="width:100%;height:100%;animation-play-state:paused">
    <g class="ldl-scale"
        style="transform-origin:50% 50% 0px;transform:rotate(0deg) scale(0.8);animation-play-state:paused">
        <g style="animation-play-state:paused">
            <circle stroke-miterlimit="10" stroke-linecap="round" stroke-width="3" stroke="#000" fill="#f2f2f2" r="23.8"
                cy="68.9" cx="46.8" style="fill:rgb(242, 242, 242);animation-play-state:paused"></circle>
            <circle stroke-miterlimit="10" stroke-linecap="round" stroke-width="3" stroke="#000" fill="#8cc63f" r="2.7"
                cy="63.5" cx="45.7" style="fill:rgb(140, 198, 63);animation-play-state:paused"></circle>
            <circle stroke-miterlimit="10" stroke-linecap="round" stroke-width="3" stroke="#000" fill="#8cc63f" r="2.7"
                cy="73" cx="45.7" style="fill:rgb(140, 198, 63);animation-play-state:paused"></circle>
            <circle stroke-miterlimit="10" stroke-linecap="round" stroke-width="3" stroke="#000" fill="#8cc63f" r="2.7"
                cy="82.5" cx="45.7" style="fill:rgb(140, 198, 63);animation-play-state:paused"></circle>
        </g>
        <g style="animation-play-state:paused">
            <path d="M29.7 53.6l-17.5-16" stroke-miterlimit="10" stroke-linecap="round" stroke-width="3" stroke="#000"
                fill="none" style="animation-play-state:paused"></path>
            <path d="M12.1 52l9.4-5.7" stroke-miterlimit="10" stroke-linecap="round" stroke-width="3" stroke="#000"
                fill="none" style="animation-play-state:paused"></path>
        </g>
        <g style="animation-play-state:paused">
            <path d="M61.8 56.1L84.9 39" stroke-miterlimit="10" stroke-linecap="round" stroke-width="3" stroke="#000"
                fill="none" style="animation-play-state:paused"></path>
            <path d="M87.9 49.5l-15.4-1.3" stroke-miterlimit="10" stroke-linecap="round" stroke-width="3" stroke="#000"
                fill="none" style="animation-play-state:paused"></path>
        </g>
        <g style="animation-play-state:paused">
            <circle r="13.8" stroke-miterlimit="10" stroke-linecap="round" stroke-width="3" stroke="#000" fill="#f2f2f2"
                cy="39" cx="45.7" transform="rotate(-3.642 45.717 39.027) scale(1.00002)"
                style="fill:rgb(242, 242, 242);animation-play-state:paused"></circle>
            <circle stroke-miterlimit="10" stroke-width="3" stroke="#000" r="1" cy="37.6" cx="39.9"
                style="animation-play-state:paused"></circle>
            <circle stroke-miterlimit="10" stroke-width="3" stroke="#000" r="1" cy="39.7" cx="49.4"
                style="animation-play-state:paused"></circle>
            <path stroke-miterlimit="10" stroke-width="3" stroke="#000" fill="#ed1c24"
                d="M35.2 50.9c1.8-2.6 3.5-5.2 5.3-7.8.5-.7 1.5-.8 2-.1 1.1 1.6 2.2 3.3 3.4 4.9.4.6.1 1.5-.7 1.8l-8.7 2.9c-1 .3-1.9-.8-1.3-1.7z"
                style="fill:rgb(237, 28, 36);animation-play-state:paused"></path>
        </g>
        <g style="animation-play-state:paused">
            <g style="animation-play-state:paused">
                <path stroke-miterlimit="10" stroke-width="3" stroke="#000" fill="red"
                    d="M72.4 14.9c-3.8 2.9-6.2 7.3-6.6 12.1-.3 3.7-1.1 5-2 5.2-6.3 1.7-15-2.5-23.1-7.9-.6-.4-1.5-1.1-1.8-2.2-.2-.8-.1-1.6.7-3.5.4-1 1.3-3.2 2.4-4.6 2.9-3.8 9.5-5 11.6-5.3 9.7-1.5 19-.2 25.1 1.1-1.3 1.3-1.6 1.6-6.3 5.1z"
                    style="fill:rgb(255, 0, 0);animation-play-state:paused"></path>
            </g>
            <path stroke-miterlimit="10" stroke-width="3" stroke="#000" fill="#fff"
                d="M64.1 37.2L34 27.1c-2-.7-3.1-2.9-2.5-5l.1-.3c.7-2 2.9-3.1 5-2.5l30 10.1c2 .7 3.1 2.9 2.5 5l-.1.4c-.7 2-2.9 3.1-4.9 2.4z"
                style="fill:rgb(255, 255, 255);animation-play-state:paused"></path>
            <circle r="3.2" stroke-miterlimit="10" stroke-width="3" stroke="#000" fill="#fff" cy="10.5" cx="78.3"
                transform="rotate(-41.384 78.336 10.532)" style="fill:rgb(255, 255, 255);animation-play-state:paused">
            </circle>
        </g>
        <metadata xmlns:d="https://loading.io/stock/" style="animation-play-state:paused">
            <d:name style="animation-play-state:paused">snowman</d:name>


            <d:tags style="animation-play-state:paused">snowman,christmas,cold,snowball,snow</d:tags>


            <d:license style="animation-play-state:paused">by</d:license>


            <d:slug style="animation-play-state:paused">rqhh1t</d:slug>
        </metadata>
    </g><!-- generated by https://loading.io/ -->
</svg>