<?xml version="1.0" encoding="utf-8"?>
<svg xml:space="preserve" viewBox="0 0 128 128" y="0px" x="0px"
    xmlns:xlink="http://www.w3.org/1999/xlink" xmlns="http://www.w3.org/2000/svg" id="圖層_1" version="1.1" width="200px"
    height="200px" style="width:100%;height:100%;animation-play-state:paused">
    <g class="ldl-scale"
        style="transform-origin:50% 50% 0px;transform:rotate(0deg) scale(0.8);animation-play-state:paused">
        <style type="text/css" style="animation-play-state:paused">
            .st0 {
                fill: none
            }

            .st1 {
                stroke-linejoin: round
            }

            .st1,
            .st2 {
                fill: none;
                stroke: #a0c8d7;
                stroke-width: 3;
                stroke-linecap: round;
                stroke-miterlimit: 10
            }
        </style>
        <path d="z" class="st0" style="animation-play-state:paused"></path>
        <path d="M52.4,57.2v13.6L64,77.4l11.6-6.7V57.2L64,50.6L52.4,57.2z" class="st1"
            style="animation-play-state:paused"></path>
        <g style="animation-play-state:paused">
            <path d="M75.1,21.1L64.5,32l-11-10.6" class="st2" style="animation-play-state:paused"></path>
            <path d="M64.3,12.8v36.1" class="st2" style="animation-play-state:paused"></path>
            <path d="M32.4,32.9l4.1,14.7l-14.6,4.1" class="st2" style="animation-play-state:paused"></path>
            <path d="M19.8,38.1l31.2,18" class="st2" style="animation-play-state:paused"></path>
            <path d="M21.2,75.9l14.8,3.7l-3.8,14.7" class="st2" style="animation-play-state:paused"></path>
            <path d="M19.6,89.3l31.1-18" class="st2" style="animation-play-state:paused"></path>
            <path d="M52.9,106.9L63.5,96l11,10.6" class="st2" style="animation-play-state:paused"></path>
            <path d="M63.7,115.2V79.1" class="st2" style="animation-play-state:paused"></path>
            <path d="M95.6,95.1l-4.1-14.7l14.6-4.1" class="st2" style="animation-play-state:paused"></path>
            <path d="M108.2,89.9l-31.2-18" class="st2" style="animation-play-state:paused"></path>
            <path d="M106.8,52.1l-14.8-3.7l3.8-14.7" class="st2" style="animation-play-state:paused"></path>
            <path d="M108.4,38.7l-31.1,18" class="st2" style="animation-play-state:paused"></path>
        </g>
        <g style="animation-play-state:paused">
            <g style="animation-play-state:paused">
                <path d="M55.3,33.7l-2.9,9.7l-9.7-3.1" class="st2" style="animation-play-state:paused"></path>
                <path d="M46.3,32l11,21.5" class="st2" style="animation-play-state:paused"></path>
            </g>
            <g style="animation-play-state:paused">
                <path d="M32.5,56.1l6.9,7.6l-7.6,6.9" class="st2" style="animation-play-state:paused"></path>
                <path d="M26.5,63l24.2,1.3" class="st2" style="animation-play-state:paused"></path>
            </g>
            <g style="animation-play-state:paused">
                <path d="M40.4,87.2l10-2.3l2.2,10" class="st2" style="animation-play-state:paused"></path>
                <path d="M43.5,95.7l13.2-20.2" class="st2" style="animation-play-state:paused"></path>
            </g>
            <g style="animation-play-state:paused">
                <path d="M71.4,95.7l2.9-9.7l9.7,2.9" class="st2" style="animation-play-state:paused"></path>
                <path d="M80.4,97.3l-11-21.4" class="st2" style="animation-play-state:paused"></path>
            </g>
            <g style="animation-play-state:paused">
                <path d="M94.2,73.2l-6.9-7.4l7.6-6.9" class="st2" style="animation-play-state:paused"></path>
                <path d="M100.1,66.3L76,65" class="st2" style="animation-play-state:paused"></path>
            </g>
            <g style="animation-play-state:paused">
                <path d="M86.3,42.2l-10,2.2l-2.3-10" class="st2" style="animation-play-state:paused"></path>
                <path d="M83.2,33.5L70,53.9" class="st2" style="animation-play-state:paused"></path>
            </g>
        </g>
        <path d="z" class="st0" style="animation-play-state:paused"></path>
        <metadata xmlns:d="https://loading.io/stock/" style="animation-play-state:paused">
            <d:name style="animation-play-state:paused">snow flake</d:name>


            <d:tags style="animation-play-state:paused">snow flake,freeze,christmas,winter,ice</d:tags>


            <d:license style="animation-play-state:paused">by</d:license>


            <d:slug style="animation-play-state:paused">7tu0ak</d:slug>
        </metadata>
    </g><!-- generated by https://loading.io/ -->
</svg>