<?xml version="1.0" encoding="utf-8"?>
<svg viewBox="0 0 100 100" xmlns="http://www.w3.org/2000/svg" width="200px"
    height="200px" xmlns:xlink="http://www.w3.org/1999/xlink"
    style="width:100%;height:100%;animation-play-state:paused">
    <g class="ldl-scale"
        style="transform-origin:50% 50% 0px;transform:rotate(0deg) scale(0.8);animation-play-state:paused">
        <g style="animation-play-state:paused">
            <g style="animation-play-state:paused">
                <path d="M39.6 89.8H22v.2h55.1v-.2H61.7z" stroke-miterlimit="10" stroke-linejoin="round"
                    stroke-linecap="round" stroke-width="3" stroke="#000" fill="#d4145a"
                    style="fill:rgb(212, 20, 90);animation-play-state:paused"></path>
                <path d="M22 23.4h6.5v11.1H22z" stroke-miterlimit="10" stroke-linejoin="round" stroke-linecap="round"
                    stroke-width="3" stroke="#000" fill="#d4145a"
                    style="fill:rgb(212, 20, 90);animation-play-state:paused"></path>
                <path d="M39.6 45.6V34.5H22v11.1h6.5z" stroke-miterlimit="10" stroke-linejoin="round"
                    stroke-linecap="round" stroke-width="3" stroke="#000" fill="#d4145a"
                    style="fill:rgb(212, 20, 90);animation-play-state:paused"></path>
                <path d="M50.6 45.6h11.1V34.5H39.6v11.1z" stroke-miterlimit="10" stroke-linejoin="round"
                    stroke-linecap="round" stroke-width="3" stroke="#000" fill="#d4145a"
                    style="fill:rgb(212, 20, 90);animation-play-state:paused"></path>
                <path d="M72.7 34.5h-11v11.1h15.4V34.5z" stroke-miterlimit="10" stroke-linejoin="round"
                    stroke-linecap="round" stroke-width="3" stroke="#000" fill="#d4145a"
                    style="fill:rgb(212, 20, 90);animation-play-state:paused"></path>
                <path d="M39.6 34.5h11V23.4H28.5v11.1z" stroke-miterlimit="10" stroke-linejoin="round"
                    stroke-linecap="round" stroke-width="3" stroke="#000" fill="#d4145a"
                    style="fill:rgb(212, 20, 90);animation-play-state:paused"></path>
                <path d="M61.7 34.5h11V23.4H50.6v11.1z" stroke-miterlimit="10" stroke-linejoin="round"
                    stroke-linecap="round" stroke-width="3" stroke="#000" fill="#d4145a"
                    style="fill:rgb(212, 20, 90);animation-play-state:paused"></path>
                <path d="M72.7 23.4H77v11.1h-4.3z" stroke-miterlimit="10" stroke-linejoin="round" stroke-linecap="round"
                    stroke-width="3" stroke="#000" fill="#d4145a"
                    style="fill:rgb(212, 20, 90);animation-play-state:paused"></path>
                <path d="M22 45.6h6.5v11.1H22z" stroke-miterlimit="10" stroke-linejoin="round" stroke-linecap="round"
                    stroke-width="3" stroke="#000" fill="#d4145a"
                    style="fill:rgb(212, 20, 90);animation-play-state:paused"></path>
                <path d="M39.6 67.7V56.6H22v11.1h6.5z" stroke-miterlimit="10" stroke-linejoin="round"
                    stroke-linecap="round" stroke-width="3" stroke="#000" fill="#d4145a"
                    style="fill:rgb(212, 20, 90);animation-play-state:paused"></path>
                <path d="M39.6 56.6v11.1h22.1V56.6H50.6z" stroke-miterlimit="10" stroke-linejoin="round"
                    stroke-linecap="round" stroke-width="3" stroke="#000" fill="#d4145a"
                    style="fill:rgb(212, 20, 90);animation-play-state:paused"></path>
                <path d="M61.7 56.6v11.1h15.4V56.6h-4.4z" stroke-miterlimit="10" stroke-linejoin="round"
                    stroke-linecap="round" stroke-width="3" stroke="#000" fill="#d4145a"
                    style="fill:rgb(212, 20, 90);animation-play-state:paused"></path>
                <path d="M50.6 45.6H28.5v11h22.1z" stroke-miterlimit="10" stroke-linejoin="round" stroke-linecap="round"
                    stroke-width="3" stroke="#000" fill="#d4145a"
                    style="fill:rgb(212, 20, 90);animation-play-state:paused"></path>
                <path d="M50.6 56.6h22.1v-11H50.6z" stroke-miterlimit="10" stroke-linejoin="round"
                    stroke-linecap="round" stroke-width="3" stroke="#000" fill="#d4145a"
                    style="fill:rgb(212, 20, 90);animation-play-state:paused"></path>
                <path d="M72.7 45.6H77v11.1h-4.3z" stroke-miterlimit="10" stroke-linejoin="round" stroke-linecap="round"
                    stroke-width="3" stroke="#000" fill="#d4145a"
                    style="fill:rgb(212, 20, 90);animation-play-state:paused"></path>
                <path d="M22 67.7h6.5v11.1H22z" stroke-miterlimit="10" stroke-linejoin="round" stroke-linecap="round"
                    stroke-width="3" stroke="#000" fill="#d4145a"
                    style="fill:rgb(212, 20, 90);animation-play-state:paused"></path>
                <path d="M39.6 78.7H22v11.1h17.6z" stroke-miterlimit="10" stroke-linejoin="round" stroke-linecap="round"
                    stroke-width="3" stroke="#000" fill="#d4145a"
                    style="fill:rgb(212, 20, 90);animation-play-state:paused"></path>
                <path d="M39.6 78.7v11.1h22.1V78.7H50.6z" stroke-miterlimit="10" stroke-linejoin="round"
                    stroke-linecap="round" stroke-width="3" stroke="#000" fill="#d4145a"
                    style="fill:rgb(212, 20, 90);animation-play-state:paused"></path>
                <path d="M72.7 78.7h-11v11.1h15.4V78.7z" stroke-miterlimit="10" stroke-linejoin="round"
                    stroke-linecap="round" stroke-width="3" stroke="#000" fill="#d4145a"
                    style="fill:rgb(212, 20, 90);animation-play-state:paused"></path>
                <path d="M50.6 67.7H28.5v11h22.1z" stroke-miterlimit="10" stroke-linejoin="round" stroke-linecap="round"
                    stroke-width="3" stroke="#000" fill="#d4145a"
                    style="fill:rgb(212, 20, 90);animation-play-state:paused"></path>
                <path d="M61.7 67.7H50.6v11h22.1v-11z" stroke-miterlimit="10" stroke-linejoin="round"
                    stroke-linecap="round" stroke-width="3" stroke="#000" fill="#d4145a"
                    style="fill:rgb(212, 20, 90);animation-play-state:paused"></path>
                <path d="M72.7 67.7H77v11.1h-4.3z" stroke-miterlimit="10" stroke-linejoin="round" stroke-linecap="round"
                    stroke-width="3" stroke="#000" fill="#d4145a"
                    style="fill:rgb(212, 20, 90);animation-play-state:paused"></path>
            </g>
            <path stroke-miterlimit="10" stroke-width="3" stroke="#000" fill="#999"
                d="M77.1 40.6H22c-2.2 0-4-1.8-4-4v-13c0-.7.3-3.8 3-6.3 2.3-2.1 4.9-2.3 5.7-2.4h45.7c4.8 0 8.7 3.9 8.7 8.7v13.1c-.1 2.1-1.9 3.9-4 3.9z"
                style="fill:rgb(153, 153, 153);animation-play-state:paused"></path>
        </g>
        <path stroke-miterlimit="10" stroke-linejoin="round" stroke-linecap="round" stroke-width="3" stroke="#000"
            fill="#fff"
            d="M83.1 18.2l-1-6.2c-.2-1.2-1.2-2-2.4-2h-60v.1c-2 .7-3.6 4.3-3.6 8.7 0 4.9 1.9 8.8 4.3 8.8s4.3-4 4.3-8.8v-.6h3.9c1.5 0 2.6 1.3 2.4 2.8-.1.8-.1 1.4-.1 2 0 2.3-.1 6.9 2.7 8.4.4.2 1 .5 1.6.4 3-.5 3.5-10.3 3.6-13.6-.1.8-.6 4.1 1.6 6.8.6.7 1.7 2 3.3 2.1 2.5.1 4.7-2.8 5.1-5.4.1-.4.1-.7.1-1 0-1.3 1.1-2.4 2.5-2.4h.7c1.6 0 2.8 1.5 2.4 3-.3 1.1-.4 2.4-.4 3.7 0 4.9 2.1 8.8 4.7 8.8 2.3 0 4.3-5.1 4.7-8.8.1-.9.1-1.7.1-2.4-.1-1.6 1.4-2.8 3-2.5h0c.9.2 1.6.9 1.8 1.8.6 2.5 2.1 7.4 4.4 7.4h.4c.9-.2 1.8.3 2.3 1 .6.8 1.5 1.6 2.6 1.7 2.7.2 4.8-3.9 5.5-6.3.8-3 .2-5.5-.3-6.9-.1-.3-.2-.4-.2-.6z"
            style="fill:rgb(255, 255, 255);animation-play-state:paused"></path>
        <metadata xmlns:d="https://loading.io/stock/" style="animation-play-state:paused">
            <d:name style="animation-play-state:paused">chimney</d:name>


            <d:tags style="animation-play-state:paused">chimney,christmas,snow,house,santa</d:tags>


            <d:license style="animation-play-state:paused">by</d:license>


            <d:slug style="animation-play-state:paused">a8qle2</d:slug>
        </metadata>
    </g><!-- generated by https://loading.io/ -->
</svg>