<?xml version="1.0" encoding="utf-8"?>
<svg viewBox="0 0 100 100" xmlns="http://www.w3.org/2000/svg" width="200px"
    height="200px" xmlns:xlink="http://www.w3.org/1999/xlink"
    style="width:100%;height:100%;animation-play-state:paused">
    <g class="ldl-scale"
        style="transform-origin:50% 50% 0px;transform:rotate(0deg) scale(0.8);animation-play-state:paused">
        <g style="animation-play-state:paused">
            <g style="animation-play-state:paused">
                <path stroke-miterlimit="10" stroke-width="3" stroke="#000" fill="#f15a24"
                    d="M58.7 30.9c0-4.4-3.6-8-8-8s-8 3.6-8 8v.5h15.9c.1-.2.1-.4.1-.5z"
                    style="stroke:rgb(246, 215, 70);fill:rgb(20, 11, 52);animation-play-state:paused"></path>
            </g>
            <path stroke-miterlimit="10" stroke-width="3" stroke="#000" fill="#f15a24"
                d="M73.6 10.1C68 9.4 63.9 13 63 13.8c-4.4 3.9-7.2 10.8-5 13.8 3 3.9 12.5-.1 14.4-.9.1 0 .1-.1.2-.1 6.1-2.7 11.3-5 11.7-8 .5-3.3-5-7.9-10.7-8.5z"
                style="stroke:rgb(246, 215, 70);fill:rgb(20, 11, 52);animation-play-state:paused"></path>
            <path stroke-miterlimit="10" stroke-width="3" stroke="#000" fill="#f15a24"
                d="M26.4 10.1c5.7-.6 9.8 3 10.7 3.7 4.4 3.9 7.2 10.8 5 13.8-3 3.9-12.5-.1-14.4-.9-.1 0-.1-.1-.2-.1-6.1-2.7-11.3-5-11.7-8-.6-3.3 4.9-7.9 10.6-8.5z"
                style="stroke:rgb(246, 215, 70);fill:rgb(20, 11, 52);animation-play-state:paused"></path>
            <path stroke-miterlimit="10" stroke-linecap="round" stroke-width="3" stroke="#000" fill="#f15a24"
                d="M58.7 27.1c.5-1.2 2.9-6.1 8.5-8.5 3.7-1.5 7-1.3 8.5-1.1"
                style="stroke:rgb(246, 215, 70);fill:rgb(20, 11, 52);animation-play-state:paused"></path>
            <path stroke-miterlimit="10" stroke-linecap="round" stroke-width="3" stroke="#000" fill="#f15a24"
                d="M40.6 27.1c-.5-1.2-2.9-6.1-8.5-8.5-3.7-1.5-7-1.3-8.5-1.1"
                style="stroke:rgb(246, 215, 70);fill:rgb(20, 11, 52);animation-play-state:paused"></path>
        </g>
        <g style="animation-play-state:paused">
            <path d="M18.8 31.4h63.9v10.7H18.8z" stroke-miterlimit="10" stroke-linejoin="round" stroke-width="3"
                stroke="#000" fill="#8cc63f"
                style="stroke:rgb(246, 215, 70);fill:rgb(132, 32, 107);animation-play-state:paused"></path>
            <path d="M42.7 31.4h16v10.7h-16z" stroke-miterlimit="10" stroke-width="3" stroke="#000" fill="#009245"
                style="stroke:rgb(246, 215, 70);fill:rgb(229, 92, 48);animation-play-state:paused"></path>
        </g>
        <g style="animation-play-state:paused">
            <path d="M26.2 42h49v48h-49z" stroke-miterlimit="10" stroke-linejoin="round" stroke-width="3" stroke="#000"
                fill="#8cc63f" style="stroke:rgb(246, 215, 70);fill:rgb(132, 32, 107);animation-play-state:paused">
            </path>
            <path d="M47.5 42h6.4v48h-6.4z" stroke-miterlimit="10" stroke-width="3" stroke="#000" fill="#009245"
                style="stroke:rgb(246, 215, 70);fill:rgb(229, 92, 48);animation-play-state:paused"></path>
        </g>
        <metadata xmlns:d="https://loading.io/stock/" style="animation-play-state:paused">
            <d:name style="animation-play-state:paused">christmas present</d:name>


            <d:tags style="animation-play-state:paused">christmas present,gift,surprise,boxing day,love</d:tags>


            <d:license style="animation-play-state:paused">by</d:license>


            <d:slug style="animation-play-state:paused">keney5</d:slug>
        </metadata>
    </g><!-- generated by https://loading.io/ -->
</svg>