<?xml version="1.0" encoding="utf-8"?>
<svg xml:space="preserve" viewBox="0 0 100 100" y="0" x="0"
    xmlns="http://www.w3.org/2000/svg" id="圖層_1" version="1.1" width="200px" height="200px"
    xmlns:xlink="http://www.w3.org/1999/xlink" style="width:100%;height:100%;animation-play-state:paused">
    <g class="ldl-scale"
        style="transform-origin:50% 50% 0px;transform:rotate(0deg) scale(0.8);animation-play-state:paused">
        <path stroke-miterlimit="10" stroke-width="3.5" stroke="#333" fill="#e0e0e0"
            d="M79.058 54.907H20.942a4.565 4.565 0 0 1-4.565-4.565V37.055a4.565 4.565 0 0 1 4.565-4.565h58.116a4.565 4.565 0 0 1 4.565 4.565v13.286a4.565 4.565 0 0 1-4.565 4.566z"
            style="stroke:rgb(0, 153, 229);fill:rgb(255, 76, 76);animation-play-state:paused"></path>
        <path stroke-miterlimit="10" stroke-width="3.5" stroke="#333" fill="#e0e0e0"
            d="M76.616 54.907H23.384v29.404A5.689 5.689 0 0 0 29.073 90h41.854a5.689 5.689 0 0 0 5.689-5.689V54.907z"
            style="stroke:rgb(0, 153, 229);fill:rgb(255, 76, 76);animation-play-state:paused"></path>
        <path d="M41.553 32.49h16.894V90H41.553z" stroke-miterlimit="10" stroke-width="3.5" stroke="#333" fill="#e15b64"
            style="stroke:rgb(0, 153, 229);fill:rgb(52, 191, 73);animation-play-state:paused"></path>
        <path stroke-miterlimit="10" stroke-width="3.5" stroke="#333" fill="none"
            d="M57.114 14.073c6.074-5.612 10.568-4.762 13.644-1.432s3.57 7.877-2.504 13.489-16.567 4.133-16.567 4.133-.646-10.578 5.427-16.19z"
            style="stroke:rgb(0, 153, 229);animation-play-state:paused"></path>
        <path stroke-miterlimit="10" stroke-width="3.5" stroke="#333" fill="none"
            d="M42.886 14.073c-6.074-5.612-10.568-4.762-13.644-1.432s-3.57 7.877 2.504 13.489 16.567 4.133 16.567 4.133.646-10.578-5.427-16.19z"
            style="stroke:rgb(0, 153, 229);animation-play-state:paused"></path>
        <path stroke-miterlimit="10" stroke-width="3.5" stroke="#000" opacity=".2"
            d="M79.058 32.49H52V90h18.927a5.689 5.689 0 0 0 5.689-5.689V54.907h2.442a4.565 4.565 0 0 0 4.565-4.565V37.055a4.565 4.565 0 0 0-4.565-4.565z"
            style="stroke:rgb(255, 76, 76);fill:rgb(255, 76, 76);animation-play-state:paused"></path>
        <path d="M29.833 75.576V61.292" stroke-miterlimit="10" stroke-linecap="round" stroke-width="3.5" stroke="#fff"
            fill="none" style="stroke:rgb(0, 153, 229);animation-play-state:paused"></path>
        <path d="M22.5 47.333v-8.777" stroke-miterlimit="10" stroke-linecap="round" stroke-width="3.5" stroke="#fff"
            fill="none" style="stroke:rgb(0, 153, 229);animation-play-state:paused"></path>
        <metadata xmlns:d="https://loading.io/stock/" style="animation-play-state:paused">
            <d:name style="animation-play-state:paused">gif</d:name>


            <d:tags style="animation-play-state:paused">
                gif,present,box,offer,giveaway,prize,award,offering,party,christmas,birthday</d:tags>


            <d:license style="animation-play-state:paused">by</d:license>


            <d:slug style="animation-play-state:paused">gyzw0q</d:slug>
        </metadata>
    </g><!-- generated by https://loading.io/ -->
</svg>